<svg width="431" height="275" viewBox="0 0 431 275" fill="none" xmlns="http://www.w3.org/2000/svg">
<path d="M52.439 3.11584L53.2111 36.6807L42.8108 49.8861L40.9513 53.148V96.1678L39.5488 144.34V152.724L43.4253 156.443L48.0897 157.53H54.6136L63.0127 156.143L64.8092 61.1216L73.0349 51.4619L66.9838 37.9256L66.511 3.11584H52.439Z" stroke="black" stroke-miterlimit="10"/>
<path d="M61.4836 139.282H57.0713L53.2263 138.321L49.791 135.831V83.4982H63.7843" stroke="black" stroke-miterlimit="10"/>
<path d="M63.0137 156.143L70.9085 162.73L78.6458 164.968H87.36L98.4853 162.73L105.986 160.556V98.6576V61.878L104.899 55.102L99.7617 47.4593L92.7336 39.4384L93.1117 0.752136H78.6615V4.34499L79.7803 6.26749L79.2131 40.8724L72.3583 49.9491" stroke="black" stroke-miterlimit="10"/>
<path d="M65.2646 84.8062H87.7515L86.4908 142.591L84.4896 145.27H68.4635L63.7676 143.773" stroke="black" stroke-miterlimit="10"/>
<path d="M37.4678 142.654H35.0883L3.60352 162.73" stroke="black" stroke-miterlimit="10"/>
<path d="M139.533 3.11584V8.17421L135.577 10.081V50.28L123.916 65.2187L122.75 73.6021L120.639 118.623V153.622L125.303 157.53L132.315 159.91H136.744H146.072V64.9824V62.6659L154.834 46.8763L150.28 38.5402L150.579 9.84458L147.853 9.24577L147.695 4.07709L139.533 3.11584Z" stroke="black" stroke-miterlimit="10"/>
<path d="M147.648 161.501L152.376 163.676H158.695H167.976L176.47 161.501L182.584 158.728L181.592 65.3764L174.295 49.177L170.34 43.8507V3.11587L168.875 1.60309L165.108 0.988525H160.665L158.301 1.60309V6.55115L154.834 8.17424V11.6726H156.568V15.029V24.7046V46.0253" stroke="black" stroke-miterlimit="10"/>
<path d="M181.717 76.344H168.812L169.978 139.613H181.717" stroke="black" stroke-miterlimit="10"/>
<path d="M207.278 6.26752V12.5077L204.899 15.0448V45.0326L194.104 54.976V141.851V157.971L198.895 159.91L207.278 162.73L216.387 161.911L230.254 157.625V82.3321V59.4198L219.128 43.6616L218.955 15.3757L217.064 6.26752H211.234H207.278Z" fill="black" stroke="black" stroke-miterlimit="10"/>
<path d="M290.529 0.988525V9.2458L288.039 10.2386V49.7285L275.448 67.157L274.471 75.2882L273.699 111.311L274.676 154.883L284.163 159.327L293.838 160.493L303.529 159.137L311.661 154.678L312.811 91.5664L311.456 61.7362L303.325 37.9256L303.719 9.07246L301.197 8.88337L300.614 0.988525H290.529Z" fill="black" stroke="black" stroke-miterlimit="10"/>
<path d="M334.131 48.657V58.1749H339.016H352.379V48.657H337.219" fill="black"/>
<path d="M334.131 48.657V58.1749H339.016H352.379V48.657H337.219" stroke="black" stroke-miterlimit="10"/>
<path d="M336.874 57.0403L337.268 66.7158L324.157 79.0387L320.454 86.8547L319.918 116.133L320.58 162.73H363.489L364.813 89.2342L364.151 76.6434L359.376 70.545L350.899 66.9679L350.363 59.0258" stroke="black" stroke-miterlimit="10"/>
<path d="M320.453 86.8547C323.652 84.2546 326.441 82.2218 328.553 80.7405C331.405 78.7392 332.587 78.0616 334.131 77.5258C336.999 76.5016 339.41 76.5331 341.191 76.5803C345.099 76.6591 347.857 77.6361 351.78 79.0229C355.027 80.1732 356.902 80.8981 359.108 82.5527C362.149 84.8219 363.898 87.5008 364.828 89.2342" stroke="black" stroke-miterlimit="10"/>
<path d="M325.842 90.9676V112.288L358.288 112.966L359.517 89.2343L356.129 85.5311C353.828 85.1214 351.512 84.7117 349.211 84.3019C346.942 84.4438 344.673 84.5698 342.388 84.7116H335.896C333.311 85.4838 330.743 86.256 328.158 87.0123C327.386 88.3203 326.614 89.644 325.858 90.9519L325.842 90.9676Z" stroke="black" stroke-miterlimit="10"/>
<path d="M325.337 111.264C325.179 115.456 325.037 119.632 324.88 123.823L323.524 151.936L324.202 155.324H358.003V114.321H356.664L356.727 121.444L329.717 121.664L326.55 121.601C326.487 118.009 326.408 114.416 326.345 110.839C326.014 110.98 325.683 111.122 325.352 111.248L325.337 111.264Z" stroke="black" stroke-miterlimit="10"/>
<path d="M365.066 156.411H394.738V68.1025L386.607 48.657L383.44 34.9001L382.73 6.26752H372.125L370.723 12.5077V39.8481L359.519 58.1749L359.393 70.5608" stroke="black" stroke-miterlimit="10"/>
<path d="M361.849 65.2345H389.977L391.38 139.566L380.948 142.686H372.958H366.372V81.3393L360.541 68.9219V65.2345H361.849Z" fill="black" stroke="black" stroke-miterlimit="10"/>
<path d="M413.869 166.433L420.787 168.261H430.305V48.6569V0.5H425.057L426.885 42.59L417.336 51.7455L412.041 60.0816V73.9015L409.205 162.73L410.749 165.74H308.667L220.895 164.968L115.457 166.512L0.500977 164.968V177.243H171.509H275.276H359.472H430.305" stroke="black" stroke-miterlimit="10"/>
<path d="M236.84 117.063H265.362L266.402 155.324H236.84V117.063Z" stroke="black" stroke-miterlimit="10"/>
<path d="M249.92 117.063C254.553 109.751 259.17 102.424 263.803 95.112" stroke="black" stroke-miterlimit="10"/>
<path d="M249.919 117.063C246.956 105.67 243.978 94.2926 241.016 82.8994" stroke="black" stroke-miterlimit="10"/>
<path d="M261.705 86.6813C261.705 86.6813 263.675 91.6767 262.54 92.4961C261.327 93.3628 256.883 89.2342 256.584 89.5966C256.347 89.8645 259.168 91.787 258.869 93.804C258.554 95.8841 255.103 96.8453 255.292 97.3654C255.497 97.9011 258.916 96.0417 261.485 97.3654C264.4 98.8624 264.699 103.653 265.33 103.527C265.913 103.416 264.81 99.54 266.59 98.0745C268.387 96.5932 272.169 98.4054 272.326 97.9484C272.484 97.4914 268.434 96.4829 268.135 94.3871C267.835 92.3227 271.365 90.2584 271.097 89.8802C270.798 89.4548 267 92.8743 264.447 91.7712C262.194 90.7942 261.768 86.6498 261.721 86.6656L261.705 86.6813Z" fill="black" stroke="black" stroke-miterlimit="10"/>
<path d="M238.275 77.7937C238.275 77.7937 240.244 82.7891 239.11 83.6085C237.896 84.4752 233.453 80.3466 233.153 80.709C232.917 80.9769 235.738 82.8994 235.438 84.9164C235.123 86.9965 231.672 87.9578 231.861 88.4778C232.066 89.0136 235.485 87.1541 238.054 88.4778C240.969 89.9748 241.269 94.7653 241.899 94.6392C242.482 94.5289 241.379 90.6524 243.16 89.1869C244.956 87.7056 248.738 89.5178 248.896 89.0608C249.053 88.6039 245.003 87.5953 244.704 85.4995C244.405 83.4352 247.934 81.3708 247.666 80.9927C247.367 80.5672 243.569 83.9867 241.016 82.8836C238.763 81.9066 238.338 77.7622 238.29 77.778L238.275 77.7937Z" fill="black" stroke="black" stroke-miterlimit="10"/>
<path d="M227.4 177.243V198.659H243.143V228.647L230.253 244.42L232.096 272.013L256.852 274.377L259.437 272.013V244.42L249.903 228.394V197.902H262.053V177.259" stroke="black" stroke-miterlimit="10"/>
<path d="M266.401 177.243V198.659H282.144V228.647L269.254 244.42L271.097 272.013L295.853 274.377L298.438 272.013V244.42L288.904 228.394V197.902H301.054V177.259" stroke="black" stroke-miterlimit="10"/>
<path d="M340.782 177.243V195.365H320.47V225.794L330.634 239.961V272.99H307.579L303.498 245.744L312.843 228.725L315.332 224.518L315.128 196.815L304.617 195.192C304.239 189.204 303.86 183.216 303.498 177.228" stroke="black" stroke-miterlimit="10"/>
<path d="M344.517 177.243C344.596 183.736 344.69 190.228 344.769 196.705H359.393V226.188L344.769 241.237L340.767 250.897L342.374 259.8L348.078 270.232H372.504L378.35 254.458L377.058 242.75L363.6 228.505L364.829 197.981L378.366 197.477V177.243" stroke="black" stroke-miterlimit="10"/>
<path d="M386.117 176.566V197.981H401.86V227.969L388.969 243.743L390.813 271.335L415.569 273.699L418.153 271.335V243.743L408.62 227.717V197.225H420.769V176.582" stroke="black" stroke-miterlimit="10"/>
<path d="M11.041 189.941C11.0579 189.281 11.2018 188.782 11.4727 188.443C11.7435 188.088 12.082 187.842 12.4883 187.707C12.9115 187.572 13.3854 187.504 13.9102 187.504C14.4349 187.487 14.9766 187.479 15.5352 187.479C16.026 187.479 16.4492 187.521 16.8047 187.605C17.1602 187.673 17.4564 187.809 17.6934 188.012C17.9303 188.215 18.0996 188.477 18.2012 188.799C18.3197 189.12 18.3789 189.535 18.3789 190.043C18.3789 190.72 18.2096 191.287 17.8711 191.744C17.5495 192.201 17.1263 192.65 16.6016 193.09C16.974 193.395 17.3548 193.606 17.7441 193.725C18.1335 193.843 18.5059 193.936 18.8613 194.004C19.2337 194.072 19.5807 194.148 19.9023 194.232C20.224 194.317 20.5033 194.469 20.7402 194.689C20.9772 194.893 21.1634 195.206 21.2988 195.629C21.4512 196.052 21.5273 196.628 21.5273 197.355C21.5273 198.27 21.3327 199.107 20.9434 199.869C20.571 200.614 20.0716 201.257 19.4453 201.799C18.8359 202.34 18.1165 202.764 17.2871 203.068C16.4577 203.373 15.5859 203.525 14.6719 203.525C14.6042 203.525 14.5111 203.517 14.3926 203.5C14.2741 203.5 14.2064 203.5 14.1895 203.5C13.9525 203.432 13.6562 203.356 13.3008 203.271C12.9453 203.17 12.5983 203.06 12.2598 202.941C11.9212 202.823 11.6335 202.721 11.3965 202.637C11.1595 202.552 11.041 202.501 11.041 202.484L10.7109 200.732L11.041 189.941ZM16.4746 194.436H15.9922C15.7552 194.436 15.4844 194.444 15.1797 194.461C14.8919 194.478 14.5788 194.512 14.2402 194.562C13.9186 194.613 13.6224 194.681 13.3516 194.766C13.0977 194.833 12.8776 194.935 12.6914 195.07C12.5052 195.189 12.4121 195.341 12.4121 195.527V202.104C12.4121 202.137 12.4375 202.171 12.4883 202.205C12.556 202.239 12.6322 202.281 12.7168 202.332C12.8014 202.366 12.8776 202.4 12.9453 202.434C13.013 202.451 13.0723 202.467 13.123 202.484H13.2754C13.3431 202.484 13.4277 202.484 13.5293 202.484C13.6478 202.484 13.7578 202.484 13.8594 202.484H14.1387C14.9173 202.484 15.6621 202.4 16.373 202.23C17.084 202.044 17.7188 201.757 18.2773 201.367C18.8529 200.978 19.3014 200.479 19.623 199.869C19.9616 199.26 20.1309 198.523 20.1309 197.66C20.1309 197.017 20.0547 196.484 19.9023 196.061C19.7669 195.637 19.5469 195.307 19.2422 195.07C18.9375 194.833 18.5482 194.673 18.0742 194.588C17.6172 194.486 17.084 194.436 16.4746 194.436ZM15.3066 188.545C15.1204 188.545 14.8581 188.545 14.5195 188.545C14.1979 188.528 13.8763 188.545 13.5547 188.596C13.25 188.646 12.9792 188.748 12.7422 188.9C12.5221 189.053 12.4121 189.29 12.4121 189.611V193.852C12.8184 193.852 13.2839 193.75 13.8086 193.547C14.3333 193.327 14.8327 193.048 15.3066 192.709C15.7975 192.354 16.2038 191.956 16.5254 191.516C16.847 191.076 17.0078 190.627 17.0078 190.17C17.0078 189.544 16.8809 189.12 16.627 188.9C16.373 188.663 15.9329 188.545 15.3066 188.545ZM22.6699 195.527C22.6699 195.02 22.6699 194.571 22.6699 194.182C22.6868 193.792 22.7038 193.411 22.7207 193.039C22.7546 192.65 22.7969 192.243 22.8477 191.82C22.8984 191.397 22.9577 190.898 23.0254 190.322C23.7194 190.068 24.3457 189.865 24.9043 189.713C25.4798 189.561 26.0384 189.442 26.5801 189.357C27.1387 189.273 27.6973 189.222 28.2559 189.205C28.8314 189.171 29.4492 189.154 30.1094 189.154C30.2279 189.154 30.3887 189.163 30.5918 189.18C30.7949 189.18 30.998 189.188 31.2012 189.205C31.4043 189.222 31.5905 189.23 31.7598 189.23C31.929 189.23 32.0391 189.239 32.0898 189.256L32.7754 189.611L32.3945 189.941C32.276 189.924 32.0475 189.916 31.709 189.916C31.3874 189.916 31.0404 189.916 30.668 189.916C30.2956 189.916 29.9486 189.916 29.627 189.916C29.3053 189.916 29.0768 189.924 28.9414 189.941C28.7044 189.975 28.4167 190.026 28.0781 190.094C27.7396 190.145 27.3841 190.204 27.0117 190.271C26.6562 190.339 26.3008 190.415 25.9453 190.5C25.6068 190.568 25.2936 190.635 25.0059 190.703C24.735 190.771 24.5065 190.83 24.3203 190.881C24.151 190.932 24.0664 190.974 24.0664 191.008V195.527H30.7949C30.7949 195.697 30.6595 195.832 30.3887 195.934C30.1348 196.035 29.7878 196.128 29.3477 196.213C28.9245 196.281 28.459 196.348 27.9512 196.416C27.4603 196.467 26.9694 196.518 26.4785 196.568C26.0046 196.602 25.5814 196.645 25.209 196.695C24.8366 196.746 24.5658 196.814 24.3965 196.898C24.3965 196.983 24.3965 197.127 24.3965 197.33C24.3965 197.516 24.388 197.719 24.3711 197.939C24.3711 198.16 24.3711 198.38 24.3711 198.6V199.006C24.3711 199.294 24.3626 199.641 24.3457 200.047C24.3457 200.436 24.3711 200.817 24.4219 201.189C24.4727 201.545 24.5911 201.85 24.7773 202.104C24.9805 202.357 25.2936 202.484 25.7168 202.484C26.2923 202.484 26.8594 202.467 27.418 202.434C27.9935 202.4 28.569 202.366 29.1445 202.332C29.7201 202.281 30.2871 202.23 30.8457 202.18C31.4212 202.129 31.9967 202.104 32.5723 202.104H33.1055C32.987 202.273 32.8346 202.442 32.6484 202.611C32.4622 202.781 32.2507 202.933 32.0137 203.068C31.7936 203.187 31.5651 203.288 31.3281 203.373C31.1081 203.458 30.888 203.5 30.668 203.5H25.1074C24.5827 203.5 24.151 203.348 23.8125 203.043C23.4909 202.721 23.237 202.315 23.0508 201.824C22.8646 201.333 22.7376 200.792 22.6699 200.199C22.6191 199.59 22.5853 198.989 22.5684 198.396C22.5684 197.787 22.5853 197.229 22.6191 196.721C22.653 196.213 22.6699 195.815 22.6699 195.527ZM36.4062 202.789C36.1862 202.789 35.9831 202.814 35.7969 202.865C35.6276 202.916 35.4414 202.967 35.2383 203.018C35.0521 203.068 34.8659 203.119 34.6797 203.17C34.4935 203.204 34.2988 203.221 34.0957 203.221C34.0957 202.662 34.1211 202.129 34.1719 201.621C34.2227 201.096 34.3327 200.563 34.502 200.021V187.174H35.1875C35.2044 187.174 35.2298 187.258 35.2637 187.428C35.3145 187.597 35.3568 187.826 35.3906 188.113C35.4414 188.401 35.4922 188.723 35.543 189.078C35.5938 189.417 35.6361 189.764 35.6699 190.119C35.7207 190.475 35.763 190.83 35.7969 191.186C35.8307 191.524 35.8561 191.803 35.873 192.023C35.89 192.26 35.9154 192.616 35.9492 193.09C35.9831 193.564 36.0085 194.097 36.0254 194.689C36.0592 195.282 36.0846 195.908 36.1016 196.568C36.1354 197.212 36.1608 197.829 36.1777 198.422C36.2116 199.014 36.2285 199.548 36.2285 200.021C36.2454 200.495 36.2539 200.851 36.2539 201.088C36.3216 201.274 36.5501 201.443 36.9395 201.596C37.3288 201.731 37.8112 201.858 38.3867 201.977C38.9622 202.078 39.5801 202.163 40.2402 202.23C40.9004 202.298 41.5267 202.357 42.1191 202.408C42.7285 202.442 43.2702 202.467 43.7441 202.484C44.2181 202.484 44.5397 202.484 44.709 202.484C45.1152 202.484 45.5046 202.434 45.877 202.332C46.2493 202.214 46.6217 202.087 46.9941 201.951C47.3665 201.816 47.7389 201.689 48.1113 201.57C48.5007 201.452 48.8984 201.393 49.3047 201.393C49.457 201.393 49.5755 201.443 49.6602 201.545C49.7448 201.646 49.7871 201.782 49.7871 201.951C49.7871 202.154 49.6432 202.34 49.3555 202.51C49.0677 202.662 48.6953 202.798 48.2383 202.916C47.7982 203.035 47.3073 203.136 46.7656 203.221C46.224 203.305 45.6908 203.373 45.166 203.424C44.6413 203.458 44.1758 203.483 43.7695 203.5C43.3633 203.517 43.0586 203.525 42.8555 203.525C42.2969 203.525 41.7467 203.492 41.2051 203.424C40.6803 203.339 40.1471 203.246 39.6055 203.145C39.0807 203.043 38.5475 202.958 38.0059 202.891C37.4811 202.823 36.9479 202.789 36.4062 202.789ZM52.25 188.57L52.9609 187.859L53.6465 188.57L56.7441 196.213H56.8203C56.8542 196.23 56.888 196.238 56.9219 196.238C57.1589 196.238 57.3366 196.111 57.4551 195.857L60.2227 190.322L62.2031 188.316L63.041 189.941C63.1257 190.737 63.2103 191.634 63.2949 192.633C63.3796 193.615 63.498 194.63 63.6504 195.68C63.8197 196.712 64.0397 197.728 64.3105 198.727C64.5983 199.725 64.9707 200.622 65.4277 201.418C65.5801 201.672 65.7493 201.875 65.9355 202.027C66.1387 202.163 66.3333 202.281 66.5195 202.383C66.7057 202.467 66.8835 202.569 67.0527 202.688C67.2389 202.806 67.3997 202.967 67.5352 203.17C67.4844 203.373 67.3659 203.483 67.1797 203.5C67.0104 203.517 66.8496 203.525 66.6973 203.525C66.1556 203.525 65.6478 203.356 65.1738 203.018C64.7168 202.679 64.3105 202.264 63.9551 201.773C63.6165 201.266 63.3288 200.732 63.0918 200.174C62.8717 199.598 62.7279 199.082 62.6602 198.625C62.6432 198.439 62.6009 198.143 62.5332 197.736C62.4655 197.313 62.3978 196.839 62.3301 196.314C62.2624 195.79 62.1862 195.24 62.1016 194.664C62.0339 194.072 61.9661 193.513 61.8984 192.988C61.8307 192.464 61.7715 191.99 61.7207 191.566C61.6868 191.143 61.6615 190.83 61.6445 190.627C61.1367 191.05 60.6797 191.592 60.2734 192.252C59.8841 192.895 59.5371 193.581 59.2324 194.309C58.9277 195.036 58.6569 195.756 58.4199 196.467C58.1999 197.178 58.0052 197.787 57.8359 198.295C57.7682 198.498 57.6413 198.617 57.4551 198.65C57.2689 198.667 57.0996 198.676 56.9473 198.676C56.8965 198.676 56.8034 198.676 56.668 198.676C56.5495 198.659 56.4733 198.642 56.4395 198.625C55.8132 197.609 55.2799 196.543 54.8398 195.426C54.3997 194.292 54.002 193.158 53.6465 192.023L53.291 191.693C53.2572 191.93 53.2064 192.303 53.1387 192.811C53.071 193.318 52.9863 193.894 52.8848 194.537C52.8001 195.18 52.707 195.857 52.6055 196.568C52.5039 197.262 52.4023 197.931 52.3008 198.574C52.2161 199.201 52.1315 199.776 52.0469 200.301C51.9792 200.809 51.9368 201.181 51.9199 201.418C51.8522 201.723 51.7591 202.078 51.6406 202.484C51.5391 202.874 51.4036 203.212 51.2344 203.5C51.1497 203.466 51.0651 203.407 50.9805 203.322C50.9128 203.221 50.8366 203.119 50.752 203.018C50.6842 202.916 50.625 202.814 50.5742 202.713C50.5234 202.611 50.5065 202.535 50.5234 202.484L52.25 188.57ZM68.2715 203.271C68.2715 203.001 68.3223 202.738 68.4238 202.484C68.5423 202.214 68.6777 201.96 68.8301 201.723C68.9824 201.469 69.1432 201.232 69.3125 201.012C69.4987 200.792 69.6595 200.589 69.7949 200.402C70.6243 199.201 71.3607 198.024 72.0039 196.873C72.6471 195.705 73.2396 194.529 73.7812 193.344C74.3229 192.142 74.8307 190.923 75.3047 189.688C75.7786 188.435 76.2611 187.14 76.752 185.803C76.8197 185.65 76.8874 185.549 76.9551 185.498C77.0397 185.43 77.1497 185.396 77.2852 185.396C77.4544 185.396 77.5983 185.481 77.7168 185.65C77.8353 185.803 77.9199 185.98 77.9707 186.184C78.0384 186.387 78.0807 186.59 78.0977 186.793C78.1315 186.979 78.1484 187.106 78.1484 187.174C78.1654 187.292 78.1823 187.521 78.1992 187.859C78.2161 188.181 78.2331 188.57 78.25 189.027C78.2669 189.467 78.2839 189.95 78.3008 190.475C78.3346 190.999 78.36 191.49 78.377 191.947C78.4108 192.387 78.4277 192.777 78.4277 193.115C78.4447 193.437 78.4616 193.665 78.4785 193.801C78.4785 193.852 78.4954 193.945 78.5293 194.08C78.5632 194.215 78.597 194.359 78.6309 194.512C78.6647 194.647 78.6986 194.783 78.7324 194.918C78.7832 195.053 78.8255 195.138 78.8594 195.172C78.8594 195.189 78.8932 195.231 78.9609 195.299C79.0456 195.367 79.1302 195.443 79.2148 195.527C79.2995 195.595 79.3757 195.663 79.4434 195.73C79.5111 195.798 79.5449 195.84 79.5449 195.857C79.5618 195.891 79.5703 195.976 79.5703 196.111C79.5703 196.247 79.5618 196.391 79.5449 196.543C79.5449 196.695 79.5449 196.848 79.5449 197C79.5449 197.135 79.5449 197.212 79.5449 197.229C79.6296 197.533 79.7988 197.88 80.0527 198.27C80.3066 198.659 80.6029 199.065 80.9414 199.488C81.2799 199.911 81.6354 200.326 82.0078 200.732C82.3802 201.139 82.7188 201.503 83.0234 201.824C83.3281 202.146 83.582 202.417 83.7852 202.637C83.9883 202.84 84.0898 202.958 84.0898 202.992C84.0898 203.161 84.0137 203.288 83.8613 203.373C83.7259 203.458 83.5566 203.5 83.3535 203.5C82.9642 203.5 82.5579 203.348 82.1348 203.043C81.7285 202.738 81.3307 202.357 80.9414 201.9C80.5521 201.426 80.1712 200.919 79.7988 200.377C79.4434 199.835 79.1302 199.336 78.8594 198.879C78.5885 198.405 78.3516 198.016 78.1484 197.711C77.9622 197.389 77.8438 197.229 77.793 197.229H73.6543C73.1973 197.229 72.8164 197.381 72.5117 197.686C72.207 197.99 71.9362 198.371 71.6992 198.828C71.4622 199.268 71.2422 199.751 71.0391 200.275C70.8529 200.783 70.6328 201.266 70.3789 201.723C70.125 202.163 69.8372 202.535 69.5156 202.84C69.194 203.128 68.7793 203.271 68.2715 203.271ZM76.752 188.57C76.735 188.587 76.7096 188.63 76.6758 188.697C76.6419 188.765 76.6081 188.833 76.5742 188.9C76.5404 188.968 76.498 189.044 76.4473 189.129C76.4134 189.197 76.3965 189.239 76.3965 189.256C76.2611 189.544 76.1087 189.908 75.9395 190.348C75.7871 190.788 75.6178 191.236 75.4316 191.693L74.8984 193.064C74.7292 193.521 74.5768 193.928 74.4414 194.283C74.306 194.639 74.196 194.935 74.1113 195.172C74.0267 195.392 73.9844 195.51 73.9844 195.527V195.857H77.4883L76.752 188.57Z" fill="black"/>
<path d="M0.5 177.897V210.397H91.5V177.897" stroke="black"/>
</svg>
