<svg width="710" height="619" viewBox="0 0 710 619" fill="none" xmlns="http://www.w3.org/2000/svg">
<path d="M304.55 245.09L293.75 268.86L223.32 408.86C236.66 410.57 243.52 409.89 247.35 408.86C248.01 408.68 249.69 408.2 250.18 408.86C251.3 410.37 245.32 416.57 241.6 420.41C231.94 430.41 227.11 435.41 222.5 436.78C221.65 437.03 218.46 437.9 216.46 440.68C216.12 441.16 214.7 443.11 215.29 444.19C216.34 446.12 223.18 444.11 228.35 442.83C239.84 439.97 258.37 436.81 270.06 435.42C274.36 434.91 279.44 434.43 281.36 430.94C281.95 429.88 282.42 428.2 280.97 421.39C280.18 417.7 279.02 413.41 277.27 408.72L332.82 282.03L376.67 391.06C377.76 390.94 379.32 390.88 381.15 391.18C385.96 391.99 389.08 394.78 390.9 396.44C393.11 398.47 397.8 402.78 398.5 409.3C399.01 414.09 397.12 417.74 394.41 422.94C393.03 425.59 389.82 431.1 385.44 437.36C383.69 439.87 381.92 442.24 382.71 443.4C383.57 444.67 386.97 443.72 387.39 443.59C392.19 442.2 394.47 438.21 397.14 434.82C398.45 433.15 402.17 430.07 409.61 423.91C412.63 421.41 420.68 414.87 429.69 406.76C432.46 404.26 435.16 401.76 434.95 398.57C434.72 395.09 431.11 392.38 430.27 391.75C426.59 388.98 422.6 388.76 422.67 387.66C422.72 386.85 424.86 386.93 425.59 385.52C426.36 384.02 425.09 381.77 423.64 379.87L384.27 297.81L375.3 272.86L365.94 237.19V211.66L419.15 221.99L449.75 228.81C449.78 227.2 450.09 226.47 450.55 226.3C451.74 225.85 454.6 228.86 455.9 232.38C457.5 236.7 456 239.77 457.78 240.77C458.84 241.37 460.55 240.94 461.4 240.05C462.57 238.82 461.8 237.02 462.56 236.72C463.39 236.39 465.35 238.1 465.6 240.05C465.73 241.06 465.32 241.48 465.6 241.79C466.35 242.6 470.73 241.09 472.84 237.74C474.49 235.1 474.14 232.26 473.85 229.93C473.55 227.54 473.14 224.19 470.67 222.26C468.44 220.52 467.38 222.13 463.58 220.52C459.24 218.68 459.58 216.12 454.9 214.3C454.05 213.97 452.94 213.63 452.3 212.56C451.48 211.22 451.85 209.49 452.3 208.22L387.32 175.8L377.48 168.13L348.1 151.78L336.23 147.15C335.57 144.47 336.06 142.97 336.66 142.08C337.82 140.37 339.49 140.82 341.73 138.32C342.35 137.62 342.73 137.02 343.61 136.73C345.01 136.27 345.9 137.18 346.5 136.73C347.67 135.86 345.28 131.82 346.5 130.8C347.24 130.18 348.42 131.41 349.97 130.8C351.23 130.3 352.13 128.82 352.29 127.47C352.57 125.04 350.31 124.38 350.26 121.54C350.24 120.02 350.88 119.94 351.42 117.34C351.87 115.17 352.21 113.56 351.71 112.13C350.59 108.94 346.42 109.96 341.72 105.62C339.28 103.36 339.85 102.57 337.96 101.57C335.45 100.24 333.94 101.37 327.4 101.57C322.54 101.72 321.9 101.14 319.87 102C316.59 103.4 314.91 106.34 314.52 107.07C313.35 109.18 313.99 109.57 312.35 114.88C311.43 117.86 311.14 118.04 310.76 119.95C310.33 122.11 310.52 122.86 310.33 126.17C310.04 131.17 309.54 130.91 309.61 133.7C309.68 136.58 309.74 138.97 311.35 141.37C311.75 141.97 314.02 145.22 317.63 145.71C319.55 145.97 320.88 145.32 321.19 145.85C321.73 146.8 318.12 149.78 317.63 150.19C314.05 153.17 308.53 158.48 299.77 168.71L268.97 167.29L256.27 162.78C249.29 157.57 245.25 155.13 242.73 153.92C242.33 153.73 241.2 153.2 241.27 152.69C241.4 151.72 245.82 152.01 249.54 151.18C254.41 150.1 257.45 147.25 261.23 143.7C266.45 138.81 274.28 131.48 272.45 125.24C271.39 121.63 267.47 119.71 261.55 116.81C253.89 113.06 247.76 112.78 246.51 108.62C246.32 108 246.25 106.91 246.1 104.72C245.87 101.38 246.1 100.36 246.03 98.11C245.97 96.26 245.84 92.23 243.87 88.13C243.7 87.78 243.8 88.01 240.77 82.94C239.2 80.31 238.42 78.99 238.07 78.36C235.89 74.37 235.14 70.67 234.74 68.63C233.62 62.94 234.05 58.02 234.64 54.71C232.96 55.02 231.29 55.33 229.61 55.65C229.58 55.94 229.55 56.38 229.52 56.92C229.38 59.87 229.82 60.84 229.88 62.87C229.88 62.87 229.99 66.82 227.83 72.02C227.41 73.04 227.53 72.59 225.03 77.58C222.8 82.03 222.55 82.56 222.23 83.43C221.82 84.53 220.82 87.25 220.49 90.8C220.02 95.82 221.3 98.02 220.09 98.81C218.81 99.65 215.8 98.21 215.14 96.31C214.91 95.67 215.11 95.41 215.14 93.62C215.16 92.54 215.09 92.22 214.91 89.75C214.54 84.86 214.71 84.89 214.43 84.38C213.25 82.19 210.32 81.68 209.15 81.48C208.32 81.34 205.41 80.94 202.73 82.62C202.14 82.99 200.82 83.89 200.18 85.52C199.71 86.71 200.04 87.23 199.77 89.27C199.55 90.95 199.4 92.11 198.73 93.17C197.29 95.47 194.29 96.01 192.97 96.24C191.26 96.55 190.71 96.21 187.96 96.24C184.66 96.27 183.01 96.29 181.36 96.68C177.47 97.6 172.99 100.75 172.04 104.86C171.73 106.2 171.83 107.57 172.04 110.31C172.29 113.6 172.83 114.66 172.13 116.29C171.39 118.03 170.3 117.93 169.76 119.54C169.04 121.69 170.28 123.92 170.73 124.73C172.89 128.61 176.15 128.24 176.97 131.15C177.57 133.28 175.93 133.9 176.18 136.43C176.52 139.91 179.97 142.26 183.39 144.52C188.14 147.66 189 146.78 193.95 149.71C200.64 153.68 199.92 155.82 203.98 156.75C208.86 157.86 212.49 155.34 215.06 157.81C216.18 158.88 216.43 160.25 216.56 160.86C217.46 165.1 220.35 169.63 226.13 178.67C232.74 189.01 244.12 194.08 247.34 195.51C251.81 197.5 255.18 198.24 276.42 200.96C285.49 202.12 293.21 203.06 299.08 203.75L304.55 245.05V245.09Z" stroke="black" stroke-miterlimit="10"/>
<path d="M250.17 408.86C252.7 407.98 256.26 406.97 260.62 406.43C266.58 405.68 273.93 404.76 277.27 408.72C278 409.58 278.5 411.39 279.47 414.96C280.51 418.8 281.14 422 281.52 424.18C281.47 426.43 281.42 428.68 281.37 430.94C279.56 432.1 276.61 433.72 272.72 434.71C268.91 435.68 265.92 435.6 264.67 435.58C259.77 435.54 257.78 436.37 234.88 441.32C231.03 442.15 225.06 443.43 217.6 444.98C216.01 444.96 215.47 444.56 215.29 444.18C214.67 442.9 217.33 440.17 219.73 438.54C222.3 436.8 223.35 437.17 225.93 435.94C229.05 434.46 229.76 432.85 235.31 426.86C236.75 425.3 238.89 423.05 241.6 420.4C244.46 416.55 247.32 412.7 250.18 408.85L250.17 408.86Z" fill="black" stroke="black" stroke-miterlimit="10"/>
<path d="M399.18 395.19C408.9 393.85 414.27 391.47 417.41 389.45C418.27 388.9 420.15 387.61 422.67 387.67C426.01 387.74 428.53 390.12 430.27 391.76C432.5 393.87 434.49 395.74 434.95 398.58C435.56 402.42 433.13 406.55 429.09 409.33C420.08 414.66 413.78 419.95 409.61 423.91C406 427.34 402.21 431.47 395.21 437.37C392 440.08 389.25 442.2 387.39 443.59C385.57 444.06 383.41 444.37 382.71 443.4C381.73 442.03 384.37 439.11 388.11 433.08C388.11 433.08 391.89 426.98 395.08 419.56C398.63 411.3 398.35 408.57 398.18 407.47C397.56 403.54 395.22 400.71 393.6 399.12L399.18 395.19Z" fill="black" stroke="black" stroke-miterlimit="10"/>
<path d="M334.11 127.22C336.26 131.2 339.99 131.53 340.22 134.61C340.32 135.96 339.66 136.65 340.22 137.41C341.08 138.6 343.97 138.74 345.32 137.41C346.99 135.77 345.15 133 346.85 131.3C348.1 130.04 350.07 131.27 351.44 129.77C352.23 128.9 352.29 127.76 352.29 127.48C352.34 125.17 350.07 124.48 349.91 122.38C349.79 120.82 351.1 120.4 351.93 118.3C352.06 117.96 354.12 112.59 351.93 109.38C349.94 106.46 346.54 108.45 341.25 105.05C337.68 102.75 338.42 101.32 335.65 100.21C334.33 99.68 332.98 99.53 322.4 102.25C317.26 103.57 316.05 104 315.01 105.31C313.08 107.73 312.35 111.51 313.74 112.7C315.25 113.98 317.69 110.91 321.89 111.68C325.15 112.28 325.19 114.42 328.77 115.25C332.69 116.15 335.62 114.26 336.16 115.25C336.69 116.22 333.68 117.68 332.98 121.11C332.39 124.01 333.79 126.61 334.12 127.22H334.11Z" fill="black" stroke="black" stroke-miterlimit="10"/>
<path d="M313.93 127.5C312.61 129.4 312.8 131.58 313.93 132.51C314.74 133.18 315.86 133.05 316.24 132.99" stroke="black" stroke-miterlimit="10"/>
<path d="M321.81 125.66C322.21 126.32 323.22 127.77 325.1 128.65C328.22 130.12 331.2 128.86 331.68 128.65" stroke="black" stroke-miterlimit="10"/>
<path d="M337.14 125.27C336.61 124.36 335.35 122.48 332.98 121.11C330.22 119.52 327.58 119.53 326.54 119.6" stroke="black" stroke-miterlimit="10"/>
<path d="M310.76 119.95C310.84 121.85 312.13 123.45 313.87 123.87C315.34 124.23 316.92 123.69 317.95 122.5" stroke="black" stroke-miterlimit="10"/>
<path d="M318.92 117.95C318.51 117.52 317.99 117.05 317.36 116.62C315.45 115.31 313.5 114.98 312.34 114.88" stroke="black" stroke-miterlimit="10"/>
<path d="M330.6 143.39C328.47 144.56 325.2 145.88 321.18 145.85C318.81 145.83 315.62 145.75 312.98 143.39C310.4 141.08 309.89 137.94 309.77 136.83" stroke="black" stroke-miterlimit="10"/>
<path d="M228.24 54.73C229.4 60.66 229.27 65.28 228.97 68.26C228.82 69.71 228.7 70.9 228.24 72.46C227.21 75.97 225.82 76.92 223.85 81.05C223.38 82.04 222.37 84.18 221.66 86.9C220.7 90.54 220.73 93.44 220.75 95.49C220.79 100.36 220.67 105.24 220.72 110.11C220.82 119.52 220.79 124.66 220.72 128.94C220.7 130.1 220.68 131.05 220.67 131.68L245.62 130.77V119.25C245.62 107.38 247.16 103.17 245.62 94.94C245 91.6 244.36 88.18 242.33 84.16C241.5 82.52 239.86 79.6 237.03 74.11C236.49 73.07 235.83 71.76 235.38 69.91C234.8 67.5 234.95 65.7 235.01 63.88C235.09 61.75 235.08 58.65 234.64 54.74H228.24V54.73Z" fill="black" stroke="black" stroke-miterlimit="10"/>
<path d="M199.86 85.8301C198.47 90.0601 199.86 95.7601 199.86 95.7601C200.72 99.2701 201.4 102.09 204 104.04C205.17 104.92 206.35 105.34 207.17 105.56L207.61 125.47C204.82 125.83 202.03 126.19 199.24 126.55H214.91C213 126.11 211.09 125.66 209.18 125.22C209.12 118.62 209.01 105.8 209.01 105.8C209.01 105.8 210.28 104.93 210.47 104.8C210.69 104.65 212.7 103.23 213.82 101.32C214.44 100.26 214.64 99.31 214.91 97.13C215.68 90.95 216.03 87.8101 214.71 85.1001C214.28 84.2301 213.83 83.3401 212.86 82.5701C210.29 80.5201 206.73 81.4301 204.92 81.8901C203.61 82.2201 201.75 82.7301 200.58 84.3701C200.21 84.8901 200.01 85.3901 199.86 85.8501V85.8301Z" stroke="black" stroke-miterlimit="10"/>
<path d="M200.05 87.1899C200.87 87.9799 202.2 89.0199 204.08 89.6599C206.19 90.3799 207.9 90.2199 209.57 90.0599C211.08 89.9199 212.27 89.7899 213.45 88.9299C214.23 88.3499 214.71 87.6699 214.99 87.1899" stroke="black" stroke-miterlimit="10"/>
<path d="M199.86 95.76C200.56 94.71 203.09 96.4 207.53 96.26C211.84 96.13 213.73 94.41 214.79 95.49C216.2 96.91 213.99 101 213.82 101.31C213.25 102.35 211.56 105.4 208.53 105.66C206.78 105.81 205.43 104.96 204.94 104.66C203.61 103.83 202.87 102.48 201.43 99.82C200.16 97.46 199.53 96.28 199.87 95.77L199.86 95.76Z" fill="black"/>
<path d="M200.48 102.26C199.03 102.74 196.84 103.39 194.12 103.85C188.64 104.78 187.35 103.9 185.26 104.99C181.27 107.07 179.93 113.41 180.49 117.94C181.33 124.69 186.57 128.78 187.53 129.53C191.56 132.67 193.93 131.76 199.12 135.89C202.33 138.45 201.95 139.21 204.35 140.66C206.93 142.22 209.88 142.85 217.53 142.48C225.55 142.09 231.75 140.93 235.25 140.21C243.42 138.52 247.59 137.62 251.38 134.98C254.04 133.13 259.22 129.53 259.1 124.53C258.99 119.69 253.98 116.2 251.6 114.53C248.7 112.5 245.9 111.58 244.1 111.12" stroke="black" stroke-miterlimit="10"/>
<path d="M318.87 149.53C319.17 149.91 321.67 152.97 325.56 152.88C329.23 152.79 332.61 149.94 333.59 145.85L366.71 161.24L384.11 174.29L451.36 207.75L449.35 227.83L365.03 210.77L364.03 227.83L304.14 238.54L300.12 202.74L289.42 201.95L250.6 196.21C244.25 192.98 237.9 189.76 231.55 186.53C228.13 181.64 224.71 176.74 221.28 171.85L214.55 156.4L222.67 156.99H231.78L240.69 152.24L253.76 160.95L273.17 167.09L294.36 167.88L303.67 164.12L311.2 155.41L318.85 149.55L318.87 149.53Z" fill="black" stroke="black" stroke-miterlimit="10"/>
</svg>
