<svg width="839" height="636" viewBox="0 0 839 636" fill="none" xmlns="http://www.w3.org/2000/svg">
<path d="M184.94 340.94C185.4 357.41 185.57 365.64 184.94 374.29C183.67 391.59 180.28 404.81 177.97 413.61C176.96 417.45 175.66 422.09 168.02 443.97C160.65 465.09 154.71 481.25 147.61 500.71C144.9 508.15 140.76 519.51 135.66 533.56H147.94L165.87 497.46L181.59 451.04L193.38 421.57L195.84 401.68L211.07 407.33L230.72 410.52L255.53 411.26L266.34 410.28L264.13 426.74L264.62 465.3L266.34 492.07L269.04 515.16L278.13 567.23L289.43 564.04L287.71 550.04L285.99 495.27L285.5 466.78L284.03 410.29L300.49 416.18L308.1 427.48L321.85 443.69L332.66 451.3L353.29 454.09H369.99V470.46L365.57 477.58L361.39 490.6L359.92 500.18L353.78 509.02L341.75 517.62L338.07 528.43L338.81 534.32L351.09 532.85L364.84 535.31L374.91 525.49C379.17 515.91 383.42 506.33 387.68 496.75L395.05 484.22C399.76 479.52 401.87 479 402.91 479.55C404.14 480.21 403.75 482.33 404.58 486.01C404.58 486.01 405.4 489.65 408.19 494.6C412.3 501.89 417.45 500.52 424.52 508.52C425.65 509.79 428.9 513.66 431.22 519.52C431.79 520.97 434.04 526.9 433.97 535.16C433.89 543.74 431.41 544.28 432.42 549.77C433.4 555.09 436.99 561.42 443.08 563.69C446.69 565.04 449.91 564.49 452.36 564.03C456.61 563.25 461.24 561.28 474 549.68C480.94 543.38 484.4 540.22 485.75 537.93C491.63 527.9 491.04 515.65 490.97 514.44C490.57 507.64 488.73 504.36 491.13 500.52C492.78 497.89 494.32 498.33 499.24 494.43C505.72 489.28 506.3 485.9 509.25 485.73C510.49 485.66 513.53 486.07 518.92 495.61C527.14 510.16 525.97 519.64 534.2 531.5C535.88 533.92 538.47 537.19 542.73 538.61C546 539.7 548.11 538.98 552.32 538.61C564.98 537.51 569.29 541.99 572.58 538.97C576.78 535.11 572.9 524.86 572.58 524.05C569.26 515.55 561.02 510.17 560.5 509.84C556.51 507.3 553.53 506.71 552.68 503.8C551.93 501.21 553.49 498.96 554.81 496.2C556.16 493.39 556.87 488.68 558.29 479.25C561.11 460.56 556.96 444.19 560.84 443.02C562.47 442.53 563.8 445.21 567.81 445.11C570.16 445.05 570.71 444.1 573.38 443.25C579.41 441.34 581.98 444.46 586.39 442.55C590.19 440.9 591.84 437.04 591.96 436.74C594.47 430.65 589.33 425.64 591.96 421.88C592.96 420.44 594.23 420.44 598.46 419.26C602.37 418.18 607.34 416 617.27 411.66C625.09 408.24 627.74 406.65 627.72 404.69C627.7 403.29 626.34 402.62 625.86 399.81C625.67 398.69 625.33 396.66 626.32 395.4C628.05 393.22 633.57 393.63 635.84 396.33C637.75 398.6 636.46 401.41 635.84 407.48C635.37 412.05 635.98 411.57 636.54 424.9C636.8 431.16 636.75 433.32 636.91 443.01C637.25 463.28 637.42 473.41 637.93 480.17C639.07 495.15 640.61 500.42 639.09 505.02C638.91 505.57 638.27 507.36 639.09 508.27C640.29 509.61 644.34 508.79 646.29 506.41C647.85 504.51 647.72 502.02 647.68 501.3C647.31 493.21 650.75 503.23 650.23 476.91C649.85 457.4 649.66 447.64 647.44 432.32C645.03 415.66 641.25 399.05 645.81 397.02C647.2 396.4 648.77 397.41 654.64 396.79C658.22 396.41 658.67 395.93 659.52 396.33C663.21 398.06 660.91 409.97 659.52 419.26C658 429.43 657.83 439.76 656.73 449.98C651.86 495.19 658.29 534.5 655.31 542.4C655.17 542.78 654.42 544.63 655.23 545.55C656.29 546.77 658.62 544.74 662.77 545.55C664.06 545.8 665.07 546.24 666.17 545.7C667.09 545.24 667.55 544.35 667.8 543.78C670.36 537.88 669.72 532.99 669.72 532.99C667.55 516.42 671.5 499.6 671.79 482.89C672.26 455.61 675.3 450.22 675.04 430.43C674.92 421.51 677.29 412.31 675.04 403.68C674.65 402.18 673.22 397.15 675.2 395.7C676.07 395.06 677.18 395.42 679.04 395.7C679.29 395.74 682.21 395.73 688.05 395.7C700.09 395.65 710.27 395.6 719.38 390.38C723.39 388.08 726.29 385.3 727.95 386.39C729.27 387.26 728.7 389.84 728.54 393.63C728.49 394.73 729 399.09 730.02 407.82C730.99 416.13 731.81 423.16 733.12 432.35C734.28 440.43 736.35 454.7 740.07 472.55C743.08 486.99 744.58 494.21 745.83 498.56C748.71 508.6 752.47 518.77 750.41 525.01C750.25 525.49 749.61 527.31 750.41 528.11C751.36 529.07 753.47 527.68 758.54 526.34C763.05 525.14 764.06 525.53 765.04 524.42C767.33 521.82 764.89 516.2 764.3 514.81C759.4 503.25 759.24 490.12 754.99 478.31C750.59 466.07 748.61 451.77 744.65 423.19C742.96 410.98 741.19 397.98 740.51 380.78C739.61 357.87 741.63 352.52 741.4 340.95C741.38 340.16 741.33 337.92 741.99 335.11C743.15 330.2 745.68 326.96 746.42 325.95C750.47 320.48 752.19 312.84 755.43 298.46C758.65 284.21 760.26 277.08 757.06 272.3C754.89 269.07 751.43 267.08 751.44 262.99C751.44 260.25 753.01 258.96 754.84 255.9C758.4 249.95 757.13 247.12 759.86 236.69C760.22 235.32 760.13 235.78 764.74 222.8C770.38 206.9 771.32 203.92 772.28 200.04C772.58 198.83 773.94 193.26 774.79 186.74C776.78 171.55 778.57 157.91 771.69 145.95C765.58 135.34 755.31 130.71 748.49 127.62C739.28 123.46 731.87 122.82 719.08 121.71C709.89 120.91 697.55 119.92 681.69 122.6C670.85 124.43 659.59 126.33 647.11 133.83C640.5 137.8 626.37 146.31 619.92 162.65C617.35 169.17 617.12 176.75 616.67 191.91C616.23 206.57 616.01 214.16 617.7 224.57C620.5 241.74 626.55 254.39 621.1 259C618.94 260.83 615.08 261.31 613.56 265.06C612.49 267.7 613.29 270.2 613.12 270.23C612.75 270.29 612.25 258.41 607.95 245.99C603.85 234.16 596.07 221.25 596.87 214.66C596.93 214.16 597.2 212.37 596.57 210.23C596.57 210.23 595.69 207.23 592.88 204.76C586.93 199.55 568.99 198.35 561.55 197.67C550.95 196.7 553.02 195.98 539.96 194.43C524.79 192.62 520.56 193.41 482.39 192.68C482.39 192.68 429.84 191.68 413.64 191.67C413.53 191.67 359.1 189.89 330.14 200.54C326.32 201.94 316.5 205.56 313.62 213.69C312.75 216.16 312.5 219.1 312.11 219.06C311.43 219.01 311.7 209.82 311.74 205.27C311.74 204.14 311.82 182.27 307.83 168.93C300.52 144.5 274.68 132.28 269.81 129.98C253.19 122.12 238.75 122.59 223.41 123.08C202.33 123.76 184.58 124.34 171.42 137.8C170.78 138.45 157.09 152.86 157.82 171.9C158.06 178.19 159.67 179.61 163.22 192.59C168.28 211.03 165.8 210.99 169.93 226.51C172.34 235.58 179.01 257.51 182.04 269.75C182.27 270.68 182.07 274.56 182.23 280.19C182.42 287.18 182.69 292.39 182.8 294.36C183.87 314.9 184.6 328.82 184.94 340.94Z" stroke="black" stroke-miterlimit="10"/>
<path d="M376.22 107C372 109.63 378.98 121.14 376.22 137.45C375.64 140.9 374.73 145.96 371.28 151.17C368.78 154.94 367.03 155.65 364.7 159.13C362.4 162.56 361.06 166.39 360.04 174.22C357.17 196.12 363.32 198.95 360.04 214.28C359.45 217.05 358.46 220.65 360.31 223.88C362.75 228.12 368.65 229.22 372.38 229.92C375.75 230.55 378.74 230.34 384.73 229.92C396.13 229.12 398.32 227.48 399.27 226.63C401.55 224.59 402.3 222.14 403.11 219.5C405.37 212.12 403.05 208.21 403.11 198.37C403.14 192.94 403.85 194.29 404.57 184.93C405.43 173.8 405.86 168.24 404.57 164.35C401.46 154.96 394.72 155 392.41 144.6C391.64 141.13 391.61 137.6 391.59 135.27C391.54 129.97 392.25 128.45 392.69 121.28C393.38 110.07 391.98 108.64 391.32 108.11C390.38 107.37 387.68 107.24 382.32 107.01C378.52 106.85 376.62 106.77 376.23 107.01L376.22 107Z" fill="black" stroke="black" stroke-miterlimit="10"/>
<path d="M410.71 178.49C409.7 179.67 410.04 180.59 410.71 190C411.12 195.8 411.13 197.18 412.14 199.43C412.84 200.98 413.88 203.3 416.26 205.05C419.05 207.1 421.16 206.53 422.86 208.77C423.44 209.53 423.77 210.35 424.22 213.1C424.94 217.48 424.74 219.22 425.06 223.03C425.6 229.37 426.84 232.54 425.06 233.89C424.96 233.96 424.96 233.95 423.76 234.42C422.18 235.03 419.81 235.95 417.94 236.8C415.4 237.95 414.12 238.54 413.79 239.41C413.33 240.63 413.87 242.3 414.86 243.33C417.02 245.57 419.89 243.27 427.93 243.71C431.35 243.9 433.45 244.46 435.83 243.08C436.23 242.85 438.44 241.57 438.36 239.89C438.34 239.57 438.21 238.59 435.92 237.09C432.47 234.83 430.8 235.77 429.18 234.37C427.74 233.13 428.38 231.82 427.78 223.41C427.37 217.72 427.16 214.87 426.94 213.86C426.32 211.07 425.55 209.21 426.57 207.96C427.39 206.95 428.39 207.56 430.69 206.65C430.85 206.59 434.34 205.15 436.17 201.71C436.46 201.17 436.83 200.33 437.31 197.64C437.92 194.13 437.49 192.38 437.9 184.47C438.03 181.89 438.16 180.44 437.19 179.01C436.76 178.39 435.7 177.15 431.85 176.28C429.25 175.69 426.5 175.52 420.22 176.28C414.58 176.96 411.74 177.32 410.73 178.51L410.71 178.49Z" stroke="black" stroke-miterlimit="10"/>
<path d="M424.25 191.36C430.17 191.14 432.64 190.12 433.72 191.61C434.25 192.33 434.07 193.34 433.7 195.33C433.01 199 432.52 201.57 430.23 203.51C428.37 205.08 425.2 206.34 422.3 205.37C419.42 204.4 418.27 201.71 416.23 196.95C415.17 194.47 414.65 193.21 415.24 192.24C416.13 190.79 418.47 191.59 424.26 191.37L424.25 191.36Z" fill="black" stroke="black" stroke-miterlimit="10"/>
<path d="M410.35 180.93C412.19 182.6 416.29 185.81 422.13 186.39C425.09 186.69 427.47 186.21 428.62 185.96C433.1 185.02 436.31 182.97 438.09 181.63" stroke="black" stroke-miterlimit="10"/>
<path d="M544.6 164.48C543.59 165.66 543.93 166.58 544.6 175.99C545.01 181.79 545.02 183.17 546.03 185.42C546.73 186.97 547.77 189.29 550.15 191.04C552.94 193.09 555.05 192.52 556.75 194.76C557.33 195.52 557.66 196.34 558.11 199.09C558.83 203.47 558.63 205.21 558.95 209.02C559.49 215.36 560.73 218.53 558.95 219.88C558.85 219.95 558.85 219.94 557.65 220.41C556.07 221.02 553.7 221.94 551.83 222.79C549.29 223.94 548.01 224.53 547.68 225.4C547.22 226.62 547.76 228.29 548.75 229.32C550.91 231.56 553.78 229.26 561.82 229.7C565.24 229.89 567.34 230.45 569.72 229.07C570.12 228.84 572.33 227.56 572.25 225.88C572.23 225.56 572.1 224.58 569.81 223.08C566.36 220.82 564.69 221.76 563.07 220.36C561.63 219.12 562.27 217.81 561.67 209.4C561.26 203.71 561.05 200.86 560.83 199.85C560.21 197.06 559.44 195.2 560.46 193.95C561.28 192.94 562.28 193.55 564.58 192.64C564.74 192.58 568.23 191.14 570.06 187.7C570.35 187.16 570.72 186.32 571.2 183.63C571.81 180.12 571.38 178.37 571.79 170.46C571.92 167.88 572.05 166.43 571.08 165C570.65 164.38 569.59 163.14 565.74 162.27C563.14 161.68 560.39 161.51 554.11 162.27C548.47 162.95 545.63 163.31 544.62 164.5L544.6 164.48Z" stroke="black" stroke-miterlimit="10"/>
<path d="M557.84 175.26C563.76 175.04 566.23 174.02 567.31 175.51C567.84 176.23 567.66 177.24 567.29 179.23C566.6 182.9 566.11 185.47 563.82 187.41C561.96 188.98 558.79 190.24 555.89 189.27C553.01 188.3 551.86 185.61 549.82 180.85C548.76 178.37 548.24 177.11 548.83 176.14C549.72 174.69 552.06 175.49 557.85 175.27L557.84 175.26Z" fill="black" stroke="black" stroke-miterlimit="10"/>
<path d="M544.24 165.8C546.08 167.47 550.18 170.68 556.02 171.26C558.98 171.56 561.36 171.08 562.51 170.83C566.99 169.89 570.2 167.84 571.98 166.5" stroke="black" stroke-miterlimit="10"/>
<path d="M471.82 147.14C469.81 148.61 470.97 151.76 470.69 160.52C470.58 163.99 470.13 167.4 469.23 174.22C467.34 188.56 465.01 189.84 465.15 196.84C465.24 201.35 465.95 208.69 469.53 217.24C486.74 215 495.17 215.82 499.64 217.24C500.33 217.46 502.22 218.1 503.85 217.24C505.56 216.34 507.07 213.74 506.48 202.61C505.95 192.44 504.37 188.55 503.13 176.28C502.62 171.28 502.37 168.78 502.41 166.47C502.61 155.54 506.09 149.18 503.37 147.14C502.53 146.51 501.13 146.72 498.34 147.14C493 147.94 491.07 149.51 488.29 150.19C480.32 152.16 475.19 144.68 471.82 147.14Z" fill="black" stroke="black" stroke-miterlimit="10"/>
<path d="M471.35 111.21C474.15 116.36 476.23 120.94 477.73 124.56C480.37 130.94 481.94 136.06 483.07 139.79C484.32 143.91 485.23 147.44 485.88 150.1" stroke="black" stroke-miterlimit="10"/>
<path d="M489.84 150.1C492.05 143.68 495.12 136.31 499.42 128.49C502.65 122.61 506.01 117.5 509.22 113.12" stroke="black" stroke-miterlimit="10"/>
<path d="M471.35 131.61C472.71 133.72 474.12 136.19 475.45 139C477.17 142.64 478.35 146.05 479.18 149" stroke="black" stroke-miterlimit="10"/>
<path d="M503.44 130.66C502.08 132.77 500.67 135.24 499.34 138.05C497.62 141.69 496.44 145.1 495.61 148.05" stroke="black" stroke-miterlimit="10"/>
<path d="M461.89 125.8C461.31 126 459.71 126.65 458.61 128.34C457.97 129.33 457.74 130.28 457.66 130.88" stroke="black" stroke-miterlimit="10"/>
<path d="M456.29 136.37C457.19 137.69 458.06 138.71 458.72 139.43C460.28 141.13 460.94 141.42 461.26 141.54C462.53 142.02 463.76 141.75 464.43 141.54" stroke="black" stroke-miterlimit="10"/>
<path d="M473.41 123.47C473.86 123.74 474.53 124.23 475.1 125.06C475.78 126.04 475.95 126.99 476.05 127.6C476.14 128.15 476.22 129 476.05 130.03" stroke="black" stroke-miterlimit="10"/>
<path d="M461.25 129.39C460.52 130.86 460.37 132.14 460.35 132.88C460.31 134.02 460.27 135.51 461.25 136.37C461.81 136.86 462.49 136.96 463.47 137.11C464.49 137.26 465.35 137.19 465.9 137.11" stroke="black" stroke-miterlimit="10"/>
<path d="M467.91 139.09C468.83 139.07 470.19 138.86 471.4 137.95C472.31 137.26 472.76 136.46 473.41 135.31C474.13 134.03 474.54 132.87 474.78 132.03" stroke="black" stroke-miterlimit="10"/>
<path d="M466.96 140.7C467.86 140.65 468.7 140.66 469.5 140.7C470.46 140.75 470.83 140.83 471.35 140.7C471.91 140.56 472.66 140.19 473.41 139.09" stroke="black" stroke-miterlimit="10"/>
<path d="M464.42 130.03C463.57 130.47 463.05 131.27 463.12 132.04C463.19 132.76 463.74 133.22 463.84 133.3C464.51 133.85 465.01 133.56 465.9 133.94C467.16 134.48 467.09 135.46 467.91 135.57C468.9 135.7 470.26 134.4 470.18 133.3C470.08 131.94 467.81 131.05 467.91 130.88C468.02 130.68 470.74 132.28 471.34 131.62C471.51 131.43 471.36 131.23 471.34 130.03C471.32 128.89 471.46 128.73 471.34 128.34C471.2 127.86 470.74 127.25 469.28 126.75" stroke="black" stroke-miterlimit="10"/>
<path d="M463.42 95.6599C462.84 95.8599 461.24 96.5099 460.14 98.1999C459.5 99.1899 459.27 100.14 459.19 100.74" stroke="black" stroke-miterlimit="10"/>
<path d="M457.82 106.22C458.72 107.54 459.59 108.56 460.25 109.28C461.81 110.98 462.47 111.27 462.79 111.39C464.06 111.87 465.29 111.6 465.96 111.39" stroke="black" stroke-miterlimit="10"/>
<path d="M474.94 93.3301C475.39 93.6001 476.06 94.0901 476.63 94.9201C477.31 95.9001 477.48 96.8501 477.58 97.4601C477.67 98.0101 477.75 98.8601 477.58 99.8901" stroke="black" stroke-miterlimit="10"/>
<path d="M462.79 99.25C462.06 100.72 461.91 102 461.89 102.74C461.85 103.88 461.81 105.37 462.79 106.23C463.35 106.72 464.03 106.82 465.01 106.97C466.03 107.12 466.89 107.05 467.44 106.97" stroke="black" stroke-miterlimit="10"/>
<path d="M469.45 108.95C470.37 108.93 471.73 108.72 472.94 107.81C473.85 107.12 474.3 106.32 474.95 105.17C475.67 103.89 476.08 102.73 476.32 101.89" stroke="black" stroke-miterlimit="10"/>
<path d="M468.5 110.56C469.4 110.51 470.24 110.52 471.04 110.56C472 110.61 472.37 110.69 472.89 110.56C473.45 110.42 474.2 110.05 474.95 108.95" stroke="black" stroke-miterlimit="10"/>
<path d="M465.96 99.8801C465.11 100.32 464.59 101.12 464.66 101.89C464.73 102.61 465.28 103.07 465.38 103.15C466.05 103.7 466.55 103.41 467.44 103.79C468.7 104.33 468.63 105.31 469.45 105.42C470.44 105.55 471.8 104.25 471.72 103.15C471.62 101.79 469.35 100.9 469.45 100.73C469.56 100.53 472.28 102.13 472.88 101.47C473.05 101.28 472.9 101.08 472.88 99.8801C472.86 98.7401 473 98.5801 472.88 98.1901C472.74 97.7101 472.28 97.1001 470.82 96.6001" stroke="black" stroke-miterlimit="10"/>
<path d="M502.9 100.21C502.32 100.41 500.72 101.06 499.62 102.75C498.98 103.74 498.75 104.69 498.67 105.29" stroke="black" stroke-miterlimit="10"/>
<path d="M497.3 110.78C498.2 112.1 499.07 113.12 499.73 113.84C501.29 115.54 501.95 115.83 502.27 115.95C503.54 116.43 504.77 116.16 505.44 115.95" stroke="black" stroke-miterlimit="10"/>
<path d="M514.42 97.8799C514.87 98.1499 515.54 98.6399 516.11 99.4699C516.79 100.45 516.96 101.4 517.06 102.01C517.15 102.56 517.23 103.41 517.06 104.44" stroke="black" stroke-miterlimit="10"/>
<path d="M502.26 103.8C501.53 105.27 501.38 106.55 501.36 107.29C501.32 108.43 501.28 109.92 502.26 110.78C502.82 111.27 503.5 111.37 504.48 111.52C505.5 111.67 506.36 111.6 506.91 111.52" stroke="black" stroke-miterlimit="10"/>
<path d="M508.92 113.5C509.84 113.48 511.2 113.27 512.41 112.36C513.32 111.67 513.77 110.87 514.42 109.72C515.14 108.44 515.55 107.28 515.79 106.44" stroke="black" stroke-miterlimit="10"/>
<path d="M507.97 115.11C508.87 115.06 509.71 115.07 510.51 115.11C511.47 115.16 511.84 115.24 512.36 115.11C512.92 114.97 513.67 114.6 514.42 113.5" stroke="black" stroke-miterlimit="10"/>
<path d="M505.43 104.44C504.58 104.88 504.06 105.68 504.13 106.45C504.2 107.17 504.75 107.63 504.85 107.71C505.52 108.26 506.02 107.97 506.91 108.35C508.17 108.89 508.1 109.87 508.92 109.98C509.91 110.11 511.27 108.81 511.19 107.71C511.09 106.35 508.82 105.46 508.92 105.29C509.03 105.09 511.75 106.69 512.35 106.03C512.52 105.84 512.37 105.64 512.35 104.44C512.33 103.3 512.47 103.14 512.35 102.75C512.21 102.27 511.75 101.66 510.29 101.16" stroke="black" stroke-miterlimit="10"/>
<path d="M506.86 119.12C506.28 119.32 504.68 119.97 503.58 121.66C502.94 122.65 502.71 123.6 502.63 124.2" stroke="black" stroke-miterlimit="10"/>
<path d="M501.26 129.68C502.16 131 503.03 132.02 503.69 132.74C505.25 134.44 505.91 134.73 506.23 134.85C507.5 135.33 508.73 135.06 509.4 134.85" stroke="black" stroke-miterlimit="10"/>
<path d="M518.38 116.79C518.83 117.06 519.5 117.55 520.07 118.38C520.75 119.36 520.92 120.31 521.02 120.92C521.11 121.47 521.19 122.32 521.02 123.35" stroke="black" stroke-miterlimit="10"/>
<path d="M506.23 122.71C505.5 124.18 505.35 125.46 505.33 126.2C505.29 127.34 505.25 128.83 506.23 129.69C506.79 130.18 507.47 130.28 508.45 130.43C509.47 130.58 510.33 130.51 510.88 130.43" stroke="black" stroke-miterlimit="10"/>
<path d="M512.89 132.41C513.81 132.39 515.17 132.18 516.38 131.27C517.29 130.58 517.74 129.78 518.39 128.63C519.11 127.35 519.52 126.19 519.76 125.35" stroke="black" stroke-miterlimit="10"/>
<path d="M511.94 134.02C512.84 133.97 513.68 133.98 514.48 134.02C515.44 134.07 515.81 134.15 516.33 134.02C516.89 133.88 517.64 133.51 518.39 132.41" stroke="black" stroke-miterlimit="10"/>
<path d="M509.4 123.34C508.55 123.78 508.03 124.58 508.1 125.35C508.17 126.07 508.72 126.53 508.82 126.61C509.49 127.16 509.99 126.87 510.88 127.25C512.14 127.79 512.07 128.77 512.89 128.88C513.88 129.01 515.24 127.71 515.16 126.61C515.06 125.25 512.79 124.36 512.89 124.19C513 123.99 515.72 125.59 516.32 124.93C516.49 124.74 516.34 124.54 516.32 123.34C516.3 122.2 516.44 122.04 516.32 121.65C516.18 121.17 515.72 120.56 514.26 120.06" stroke="black" stroke-miterlimit="10"/>
<path d="M492.96 116.73C493.12 121.21 492.92 126.92 491.7 133.4C490.45 140.07 488.49 145.59 486.66 149.77" stroke="black" stroke-miterlimit="10"/>
<path d="M484.5 108.34C483.92 108.54 482.32 109.19 481.22 110.88C480.58 111.87 480.35 112.82 480.27 113.42" stroke="black" stroke-miterlimit="10"/>
<path d="M478.9 118.9C479.8 120.22 480.67 121.24 481.33 121.96C482.89 123.66 483.55 123.95 483.87 124.07C485.14 124.55 486.37 124.28 487.04 124.07" stroke="black" stroke-miterlimit="10"/>
<path d="M496.02 106.01C496.47 106.28 497.14 106.77 497.71 107.6C498.39 108.58 498.56 109.53 498.66 110.14C498.75 110.69 498.83 111.54 498.66 112.57" stroke="black" stroke-miterlimit="10"/>
<path d="M483.87 111.93C483.14 113.4 482.99 114.68 482.97 115.42C482.93 116.56 482.89 118.05 483.87 118.91C484.43 119.4 485.11 119.5 486.09 119.65C487.11 119.8 487.97 119.73 488.52 119.65" stroke="black" stroke-miterlimit="10"/>
<path d="M490.53 121.63C491.45 121.61 492.81 121.4 494.02 120.49C494.93 119.8 495.38 119 496.03 117.85C496.75 116.57 497.16 115.41 497.4 114.57" stroke="black" stroke-miterlimit="10"/>
<path d="M487.04 112.56C486.19 113 485.67 113.8 485.74 114.57C485.81 115.29 486.36 115.75 486.46 115.83C487.13 116.38 487.63 116.09 488.52 116.47C489.78 117.01 489.71 117.99 490.53 118.1C491.52 118.23 492.88 116.93 492.8 115.83C492.7 114.47 490.43 113.58 490.53 113.41C490.64 113.21 493.36 114.81 493.96 114.15C494.13 113.96 493.98 113.76 493.96 112.56C493.94 111.42 494.08 111.26 493.96 110.87C493.82 110.39 493.36 109.78 491.9 109.28" stroke="black" stroke-miterlimit="10"/>
<path d="M204.81 314.7C205.19 312.95 205.06 300.97 204.81 277.02C204.74 270.11 202.74 260.67 198.76 241.81C194.77 222.91 189.15 200.57 188.31 197.24C184.53 182.26 182.66 175.8 182.81 165.33C182.93 156.7 183.18 147.75 189.41 140.02C195.49 132.47 204.01 130.14 208.12 129.02C217.33 126.5 224.84 127.81 231.78 129.02C241.02 130.63 248.66 131.96 255.44 137.27C265.91 145.47 268.07 158.24 270.3 171.38C271.3 177.29 272.37 186.59 270.3 209.9C268.57 229.45 266.01 243.41 264.8 250.62C262.15 266.45 259.22 289.23 258.48 318.19C257.04 317.48 254.91 316.66 252.28 316.54C248.7 316.38 247.26 317.67 246.06 316.98C243.21 315.34 246.33 305.13 247.67 300.1C249.2 294.36 249.73 285.65 251.33 268.26C254.03 238.92 248.83 237.24 253.63 222.61C254.86 218.88 256.91 213.76 257.97 205.81C258.4 202.58 258.41 200.77 258.24 187.79C257.99 168.69 257.88 166.74 256.89 163.27C255.73 159.24 254 153.18 248.76 147.69C241.52 140.11 232.3 138.54 226.41 137.53C221.05 136.62 215.81 135.72 209.48 137.94C206.6 138.95 200.26 141.73 196.07 148.37C195.53 149.23 193.11 153.18 192.28 160.16C191.22 169.06 193.79 174.2 197.16 187.25C197.86 189.96 199.07 195.92 201.5 207.84C203.91 219.67 203.96 221.12 207.05 237.37C211.29 259.67 211.64 259.35 212.88 268.12C214.3 278.2 215.46 286.47 215.18 295.35C214.89 304.53 213.21 309.51 214.37 314.71C214.43 314.98 214.71 316.21 214.23 317.57C212.99 321.11 207.37 323.34 205.29 321.77C203.52 320.44 204.46 316.48 204.84 314.71L204.81 314.7Z" stroke="black" stroke-miterlimit="10"/>
<path d="M201.57 323.05C200.03 306.19 197.8 291.99 195.75 281.02C193.68 270 191.6 261.21 190.76 257.72C187.6 244.67 186.5 242.67 183.27 229.85C179.09 213.24 180.34 214.26 176.61 199.48C171.59 179.56 169.3 177.55 169.54 168.28C169.68 162.81 169.96 151.88 177.44 144.15C180.36 141.14 184.42 139.33 192.42 135.83C202.49 131.42 207.53 129.22 213.64 127.93C230.94 124.27 245.85 130.14 256.07 134.17C265.34 137.82 273.64 141.09 281.45 149.15C291.46 159.48 294.39 171.21 296.84 181.6C301.33 200.63 299.51 215.9 296.84 238.18C295.03 253.32 293.7 256.25 290.6 276.87C287.73 295.91 286.16 311.45 285.29 321.44" stroke="black" stroke-miterlimit="10"/>
<path d="M184.65 336.66C185.38 340.45 194.54 342.33 222.69 343.5C242.21 344.31 256.75 344.16 279.7 343.5C312.24 342.56 321.89 341.53 323.1 337.02C324.3 332.54 317.08 327 316.62 326.66C309.96 321.69 302.76 323.13 291.22 322.7C281.84 322.35 285.38 321.25 265.73 319C244.36 316.55 233.43 315.38 221.27 318.07C220.27 318.29 215.39 319.76 205.64 322.7C197.66 325.1 193.4 325.96 189.27 329.76C186.91 331.93 184.22 334.39 184.66 336.67L184.65 336.66Z" stroke="black" stroke-miterlimit="10"/>
<path d="M263.56 366.43C252.89 365.82 243.95 366.16 237.25 366.69C227.22 367.48 229.55 367.89 213.93 369.77C204.05 370.96 200.04 371.08 199.85 372.41C199.6 374.19 206.48 376.51 209.97 377.69C220.28 381.17 228.86 381.81 232.85 382.09C240.78 382.64 251.19 383.01 263.55 382.5" stroke="black" stroke-miterlimit="10"/>
<path d="M199.86 352.38C199.78 357.12 199.61 361.98 199.34 366.96C198.66 379.26 197.43 390.85 195.84 401.68" stroke="black" stroke-miterlimit="10"/>
<path d="M260.8 354.62C262.64 373.17 264.48 391.72 266.32 410.27" stroke="black" stroke-miterlimit="10"/>
<path d="M284.78 344.06C284.52 366.13 284.26 388.21 284 410.28" stroke="black" stroke-miterlimit="10"/>
<path d="M312.12 219.07C309.34 219.34 305.01 221.33 299.56 233.16C297.99 236.57 292.97 248.08 290.94 274.6C290.1 285.54 289.59 301.36 286.61 307.83C286.46 308.16 285.27 310.71 284.79 314.3C284.36 317.48 284.04 319.9 285.29 321.45C287.15 323.75 290.71 321.9 299.56 322.28C306.14 322.57 309.96 323.85 310.88 324.17C313.7 325.15 316.88 326.29 319.58 329.33C320.93 330.84 323.96 334.25 323.09 337.04C321.4 342.44 305.9 342.59 302 342.63C290.45 342.74 287.46 341.49 284.78 344.07C281.59 347.13 284.41 350.88 284.78 366.12C285.08 378.74 283.37 385.09 284.39 394.23C284.58 395.94 284.92 398.3 284.78 401.7C284.54 407.49 283.22 408.44 284 410.3C285.76 414.5 293.25 411.52 300.46 416.19C304.09 418.54 302.81 419.7 310.86 430.77C316.81 438.95 320.58 442.54 321.83 443.7C325.34 446.95 328.19 449.55 332.64 451.31C337.51 453.24 341.56 453.08 345.39 453.03C353.59 452.93 361.78 453.75 369.97 454.1C389.78 454.93 400.1 455.37 403.75 461.62C407.42 467.92 400.48 473.51 404.56 486.01C406.43 491.75 409.6 495.79 410.75 497.24C416.18 504.05 419.42 503.22 424.5 508.53C434.41 518.89 433.98 534.48 433.95 535.17C433.65 542.5 431.14 543.98 432.4 549.78C433.48 554.73 436.99 561.36 443.06 563.7C450.77 566.67 458.73 561.22 468.39 554.61C475.8 549.54 483.56 544.22 487.6 534.23C491.7 524.08 490.95 514.46 490.95 514.46C490.46 508.15 488.59 504.29 491.11 500.54C492.73 498.12 494.51 498.24 499.22 494.45C502.06 492.17 503.78 490.22 505.95 487.78C519.45 472.63 550.68 438.13 560.83 443.02C561.92 443.55 564.35 445.29 567.8 445.11C570.16 444.99 571.03 444.07 573.37 443.25C579.64 441.06 581.98 444.62 586.38 442.55C589.98 440.86 593.02 436.31 592.65 432.51C592.45 430.44 591.29 429.22 591.31 425.86C591.31 424.53 591.33 423.12 591.96 421.88C593.39 419.04 597.19 418.88 602.1 417.7C604.43 417.15 608.71 415.32 617.27 411.66C625.08 408.32 627.34 406.89 627.72 404.69C628.12 402.39 626.28 400.32 625.86 399.81C618.37 390.71 621.64 342.76 619.24 306.02C619.24 306.02 617.15 274.06 608.62 249.18C607.22 245.09 606.16 243.59 603.46 235.71C600.6 227.38 599.98 223.77 597.65 223.25C594.88 222.63 592.68 227.37 589.39 229.87C578.53 238.1 565.57 237.8 558.41 237.8C534.34 237.78 510.41 241.61 486.36 242.6C443.44 244.38 441.02 247.75 408.47 247.07C378.67 246.45 366.87 243.34 359.26 240.73C338.8 233.71 328.58 230.21 322.57 224.59C320.3 222.46 316.66 218.65 312.15 219.08L312.12 219.07Z" stroke="black" stroke-miterlimit="10"/>
<path d="M323.23 250.91V331" stroke="black" stroke-miterlimit="10"/>
<path d="M407.51 282.98C406.42 291.46 405.47 304.59 407.51 320.38C409.45 335.41 412.42 339.71 413.74 351.55C415.73 369.31 411.33 379.82 406.51 400.17C403.15 414.36 399.3 434.58 397.53 460.01" stroke="black" stroke-miterlimit="10"/>
<path d="M546.5 271.16C547.59 282.03 549.43 298.39 552.48 318.23C556.57 344.81 559.34 354.9 561.45 369.82C563.91 387.24 565.63 412.49 561.45 444.57" stroke="black" stroke-miterlimit="10"/>
<path d="M184.6 349.5C197.48 352.46 208.08 353.66 215.64 354.19C219.29 354.45 222.32 354.59 224.21 354.62C231.14 354.73 236.1 354.14 252.14 354.19C274.42 354.27 285.79 355.51 303.77 351.94C314.16 349.88 320.83 347.08 323.24 341.32C324.83 337.53 324.06 333.6 323.24 331.01" stroke="black" stroke-miterlimit="10"/>
<path d="M725.25 331C726.79 314.14 729.02 299.94 731.07 288.97C733.14 277.95 735.22 269.16 736.06 265.67C739.22 252.62 740.32 250.62 743.55 237.8C747.73 221.19 746.48 222.21 750.21 207.43C755.23 187.51 757.52 185.5 757.28 176.23C757.14 170.76 756.86 159.83 749.38 152.1C746.46 149.09 742.4 147.28 734.4 143.78C724.33 139.37 719.29 137.17 713.18 135.88C695.88 132.22 680.97 138.09 670.75 142.12C661.48 145.77 653.18 149.04 645.37 157.1C635.36 167.43 632.43 179.16 629.98 189.55C625.49 208.58 627.31 223.85 629.98 246.13C631.79 261.27 633.12 264.2 636.22 284.82C639.09 303.86 640.66 319.4 641.53 329.39" stroke="black" stroke-miterlimit="10"/>
<path d="M719.82 323.43C719.44 321.68 719.57 309.7 719.82 285.75C719.89 278.84 721.89 269.4 725.87 250.54C729.86 231.64 735.48 209.3 736.32 205.97C740.1 190.99 741.97 184.53 741.82 174.06C741.7 165.43 741.45 156.48 735.22 148.75C729.14 141.2 720.62 138.87 716.51 137.75C707.3 135.23 699.79 136.54 692.85 137.75C683.61 139.36 675.97 140.69 669.19 146C658.72 154.2 656.56 166.97 654.33 180.11C653.33 186.02 652.26 195.32 654.33 218.63C656.06 238.18 658.62 252.14 659.83 259.35C662.48 275.18 665.41 297.96 666.15 326.92C667.59 326.21 669.72 325.39 672.35 325.27C675.93 325.11 677.37 326.4 678.57 325.71C681.42 324.07 678.3 313.86 676.96 308.83C675.43 303.09 674.9 294.38 673.3 276.99C670.6 247.65 675.8 245.97 671 231.34C669.77 227.61 667.72 222.49 666.66 214.54C666.23 211.31 666.22 209.5 666.39 196.52C666.64 177.42 666.75 175.47 667.74 172C668.9 167.97 670.63 161.91 675.87 156.42C683.11 148.84 692.33 147.27 698.22 146.26C703.58 145.35 708.82 144.45 715.15 146.67C718.03 147.68 724.37 150.46 728.56 157.1C729.1 157.96 731.52 161.91 732.35 168.89C733.41 177.79 730.84 182.93 727.47 195.98C726.77 198.69 725.56 204.65 723.13 216.57C720.72 228.4 720.67 229.85 717.58 246.1C713.34 268.4 712.99 268.08 711.75 276.85C710.33 286.93 709.17 295.2 709.45 304.08C709.74 313.26 711.42 318.24 710.26 323.44C710.2 323.71 709.92 324.94 710.4 326.3C711.64 329.84 717.26 332.07 719.34 330.5C721.11 329.17 720.17 325.21 719.79 323.44L719.82 323.43Z" stroke="black" stroke-miterlimit="10"/>
<path d="M741.79 345.23C741.06 349.02 731.9 350.9 703.75 352.07C697.83 352.32 692.37 352.47 687 352.56C662.4 352.93 653.84 352.68 646.75 352.07C638.93 351.4 621.43 349.7 620.35 344.04C620.14 342.95 620.53 341.65 620.26 336.84C620.05 333.02 619.74 332.69 620.18 332.02C621.55 329.98 625.41 331.56 635.23 331.27C636.29 331.24 638.19 331.2 640.63 330.83C644.36 330.26 646.27 329.23 660.71 327.57C682.08 325.12 693.01 323.95 705.17 326.64C706.17 326.86 711.05 328.33 720.8 331.27C728.78 333.67 733.04 334.53 737.17 338.33C739.53 340.5 742.22 342.96 741.78 345.24L741.79 345.23Z" stroke="black" stroke-miterlimit="10"/>
<path d="M740.85 354.36C735.29 356.29 728.3 358.46 720.14 360.41C707.68 363.38 697.92 364.54 694.65 364.9C685.08 365.95 684.62 365.27 645.26 363.96C636.77 363.68 621.97 363.22 620.52 357.87C620.35 357.23 620.44 356.79 620.43 351.83C620.43 348.5 620.38 345.79 620.34 344.04" stroke="black" stroke-miterlimit="10"/>
<path d="M674.37 428.26C683.21 428.14 690.29 427.98 694.85 427.87C704.16 427.64 708.41 427.46 714.72 427.94C721.47 428.45 732.68 429.3 733.11 432.35C733.41 434.48 728.32 436.84 724.66 438.54C715.83 442.64 708.09 443.58 705.07 443.92C697.6 444.75 687.15 445.34 674.37 444.33" stroke="black" stroke-miterlimit="10"/>
<path d="M646.35 428.86C647.84 428.51 649.78 428.2 652.06 428.2C654.37 428.2 656.33 428.51 657.83 428.86" stroke="black" stroke-miterlimit="10"/>
<path d="M657.4 442.58C656.21 442.73 654.64 442.81 652.83 442.58C651.34 442.39 650.07 442.04 649.08 441.7" stroke="black" stroke-miterlimit="10"/>
<path d="M751.44 262.99C750.92 271.68 749.75 281.56 747.45 292.28C743.72 309.64 738.11 324.09 732.77 335.29" stroke="black" stroke-miterlimit="10"/>
<path d="M621.1 259C622.38 268.75 623.55 278.77 624.57 289.07C626 303.51 627.04 317.51 627.77 331.01" stroke="black" stroke-miterlimit="10"/>
<path d="M516.01 153.08V193.7L514.57 194.3V196.34H516.49V200.77V204.36L515.53 208.8L517.33 211.19L515.95 213.35L516.61 215.51L518.17 216.47L516.37 219.94L514.57 224.61V230.37V236.12H528.59V222.34L527.39 219.1L526.2 216.35L527.99 214.43V213.23L526.08 211.67L527.99 208.8L528.59 206.88V202.81V198.97L526.79 197.41L529.07 196.7V193.94L527.87 192.74L524.28 152.36H521.82L516.01 153.08Z" stroke="black" stroke-miterlimit="10"/>
<path d="M522.81 137.44C519.53 140.13 518.52 140.05 518.19 141.31C517.94 142.27 518.52 142.32 518.79 144.29C519.19 147.28 518.06 148.7 518.94 149.5C519.54 150.05 520.71 149.99 521.32 149.5C521.84 149.08 521.93 148.36 522.06 147.27C522.21 146.04 521.97 145.87 522.21 145.33C522.64 144.37 523.55 144.57 524.44 143.66C525.57 142.52 525.52 140.79 525.48 139.67C525.47 139.15 525.4 136.82 524.44 136.54C523.99 136.41 523.57 136.81 522.8 137.43L522.81 137.44Z" fill="black" stroke="black" stroke-miterlimit="10"/>
</svg>
